# xmcd
#
# Track frame offsets:
#	150
#	15596
#	31505
#	44406
#	66059
#	80958
#	95299
#	115222
#	129643
#	150289
#	169203
#
# Disc length: 2589 seconds
#
# Revision: 0
# Processed by: cddbd v1.5.1PL0 Copyright (c) Steve Scherf et al.
# Submitted via: dBpowerAMP V4.0
#
DISCID=810a1b0b
DTITLE=Great Divide - Absolutely Live at Tumbleweed
DYEAR=1900
DGENRE=
TTITLE0=Without You
TTITLE1=San Isabella
TTITLE2=Days Go
TTITLE3=Used to be
TTITLE4=Alive and well
TTITLE5=But I do
TTITLE6=Powderfinger
TTITLE7=Dragon's Heart
TTITLE8=Milk Cow Blues
TTITLE9=Over the rain
TTITLE10=Mr. Devil
EXTD=
EXTT0=
EXTT1=
EXTT2=
EXTT3=
EXTT4=
EXTT5=
EXTT6=
EXTT7=
EXTT8=
EXTT9=
EXTT10=
PLAYORDER=
